<svg height="512" viewBox="0 0 512 512" width="512" xmlns="http://www.w3.org/2000/svg"><g id="Flat"><path d="m221.821 293.83367c-85.821 0-85.821-87.97849-85.821-108.86312 0-23.02946 0-104.97055 32-104.97055 0-24 8-56 88-56s88 32 88 56c32 0 32 81.94109 32 104.97055 0 20.88463 0 108.86312-85.821 108.86312z" fill="#084c4f"/><path d="m440 496h-368c0-176 152-160 152-192s-56-32-56-88v-3.2l-21.33008-8.53a16.96849 16.96849 0 0 1 -10.66992-15.76v-3.54a16.97056 16.97056 0 0 1 28.97-12l3.03 3.03v-32c2.47-46.59 17.15991-80 88-80 74.66992 0 86.71 37.12 88 87.66v24.34l3.03-3.03a16.97 16.97 0 0 1 28.97 12v3.54a16.96849 16.96849 0 0 1 -10.66992 15.76l-21.33008 8.53v3.2c0 56-56 56-56 88s152 16 152 192z" fill="#f5a971"/><path d="m440 496h-368c0-133.8501 87.90991-156.65 130.02-173.98 13.26-5.45 21.98-10.36011 21.98-18.02l32 32 32-32c0 7.65991 8.72 12.57007 21.98 18.02 42.11009 17.33 130.02 40.1299 130.02 173.98z" fill="#f3b73f"/><g fill="#f57a08"><path d="m309.98 322.02-37.98 37.98-16-16-16 16-37.98-37.98c13.26-5.45 21.98-10.36011 21.98-18.02l32 32 32-32c0 7.65991 8.72 12.57007 21.98 18.02z"/><path d="m344 428h-40a4 4 0 0 1 0-8h40a4 4 0 0 1 0 8z"/><path d="m148 496v-64a4 4 0 0 1 8 0v64z"/><path d="m356 496v-64a4 4 0 0 1 8 0v64z"/></g><path d="m364.2 96.47-12.2 7.53c-24 16-64 32-96 32s-72-16-96-32l-12.2-7.53c4.66-9.92 11.15-16.47 20.2-16.47 0-24 8-56 88-56s88 32 88 56c9.05005 0 15.54 6.55 20.2 16.47z" fill="#084c4f"/><circle cx="304" cy="184" fill="#084c4f" r="8"/><circle cx="208" cy="184" fill="#084c4f" r="8"/><path d="m256 212h-4a16 16 0 0 1 0-32h4a4 4 0 0 1 0 8h-4a8 8 0 0 0 0 16h4a4 4 0 0 1 0 8z" fill="#e37066"/><path d="m188.84654 161.17384 5.664-5.673a8 8 0 0 1 8.18878-1.938l18.37171 6.11738a4.26913 4.26913 0 0 1 1.67487 1.03661 4.2692 4.2692 0 0 1 -3.02366 7.28317h-28.045a4 4 0 0 1 -2.8307-6.82616z" fill="#084c4f"/><path d="m323.15346 161.17384-5.66395-5.673a8 8 0 0 0 -8.18878-1.938l-18.37173 6.1174a4.26913 4.26913 0 0 0 -1.67487 1.03661 4.2692 4.2692 0 0 0 3.02363 7.28315h28.045a4 4 0 0 0 2.8307-6.82616z" fill="#084c4f"/><path d="m184 100a4.0002 4.0002 0 0 1 -4-4c0-16.54395 0-25.65674 9.17139-34.82861a4.00026 4.00026 0 0 1 5.65722 5.65722c-6.82861 6.82813-6.82861 13.36914-6.82861 29.17139a4.0002 4.0002 0 0 1 -4 4z" fill="#0c6c71"/><path d="m200 108a4.0002 4.0002 0 0 1 -4-4c0-16.54395 0-25.65674 9.17139-34.82861a4.00026 4.00026 0 0 1 5.65722 5.65722c-6.82861 6.82813-6.82861 13.36914-6.82861 29.17139a4.0002 4.0002 0 0 1 -4 4z" fill="#0c6c71"/><path d="m328 100a4.0002 4.0002 0 0 1 -4-4c0-15.80225 0-22.34326-6.82861-29.17139a4.00026 4.00026 0 0 1 5.65722-5.65722c9.17139 9.17187 9.17139 18.28466 9.17139 34.82861a4.0002 4.0002 0 0 1 -4 4z" fill="#0c6c71"/><path d="m312 108a4.0002 4.0002 0 0 1 -4-4c0-15.80225 0-22.34326-6.82861-29.17139a4.00026 4.00026 0 0 1 5.65722-5.65722c9.17139 9.17187 9.17139 18.28466 9.17139 34.82861a4.0002 4.0002 0 0 1 -4 4z" fill="#0c6c71"/><path d="m240 244a4 4 0 0 1 0-8c15.84424 0 29.52783 0 36.42236-13.78906a4 4 0 1 1 7.15528 3.57812c-9.10547 18.21094-27.41944 18.21094-43.57764 18.21094z" fill="#e37066"/><path d="m256 140c-33.81152 0-74.61523-16.936-98.21875-32.67188a3.9999 3.9999 0 1 1 4.4375-6.65624c22.63281 15.08837 61.63425 31.32812 93.78125 31.32812s71.14844-16.23975 93.78125-31.32812a3.9999 3.9999 0 1 1 4.4375 6.65624c-23.60352 15.73588-64.40723 32.67188-98.21875 32.67188z" fill="#082f40"/></g></svg>