<svg height="512" viewBox="0 0 512 512" width="512" xmlns="http://www.w3.org/2000/svg"><g id="Flat"><path d="m112 408c0-64 32-104 32-144s-24-64-24-136 88-104 128-104 64 16 80 40c32 0 56 24 56 128 0 72-40 72-40 120 0 32 0 48 16 72s8 48-16 40z" fill="#795033"/><path d="m416 496h-320c0-116.84009 47.4-150.73 84.51-166.56006 9.43994-4.03 18.21-6.88989 25.37-9.6499 1.27991-.49 2.51-.99 3.68006-1.48 8.84985-3.73004 14.43994-7.6201 14.43994-14.31004 0-32-56-32-56-88v-80c0-32 19.71-72 96-72 112 0 88 80 88 112l3.03-3.03a16.97056 16.97056 0 0 1 28.97 12v3.54a16.96876 16.96876 0 0 1 -10.66992 15.76l-26.55 10.62c-15.27008 50.34-58.78008 56.13-58.78008 89.11 0 6.68994 5.59009 10.58 14.43994 14.31006 1.17005.49 2.40015.99 3.68006 1.48 7.16 2.76 15.93 5.61987 25.37 9.6499 37.11 15.83004 84.51 49.71995 84.51 166.56004z" fill="#f5a971"/><path d="m416 496h-320c0-116.84009 47.4-150.73 84.51-166.56006 2-.86 3.98-1.65991 5.90991-2.41992 2.66016-1.04 5.24-2.01 7.72009-2.91 4.24-1.54993 8.19007-2.95008 11.74-4.32a63.98475 63.98475 0 0 0 100.24 0c3.54992 1.36987 7.5 2.77 11.74 4.32 2.4801.9 5.05993 1.87 7.72009 2.91 1.92993.76 3.90991 1.55994 5.90991 2.41992 37.11 15.83006 84.51 49.71997 84.51 166.56006z" fill="#f57a08"/><path d="m325.58008 327.02a83.94956 83.94956 0 0 1 -139.16016 0c2.66016-1.04 5.24-2.01 7.72009-2.91a75.94277 75.94277 0 0 0 123.72 0c2.48008.9 5.05991 1.87 7.72007 2.91z" fill="#f3b73f"/><path d="m232 240 40-8 8 8s-32 32-48 0z" fill="#e37066"/><path d="m168 128c37.81249-30.25 97.07169-24.75506 137.22993-17.30565-4.07739 30.43245 8.89171 65.30565 46.77007 65.30565l20.32023-77.2869-44.32023-34.7131-65.9687-14.33333-94.0313 14.33333z" fill="#795033"/><path d="m305.84082 110.69043a4.00219 4.00219 0 0 1 -3.937-4.73193 74.642 74.642 0 0 1 6.51855-19.74756 4 4 0 0 1 7.15528 3.57812 66.63925 66.63925 0 0 0 -5.8086 17.63233 4.0013 4.0013 0 0 1 -3.92823 3.26904z" fill="#a87c50"/><path d="m209.56006 318.31006c20.53003 84.12988 23.10986 136.17994 23.40994 177.68994h-136.97c0-151.87 80.08008-163.59009 113.56006-177.68994z" fill="#03999c"/><path d="m416 496h-136.97c.3-41.51 2.87988-93.56006 23.40991-177.68994 33.48001 14.09985 113.56009 25.81994 113.56009 177.68994z" fill="#03999c"/><path d="m232.97 496h-16.97c0-40-32-104-32-104l16-24-24-16 4.51-22.56006c11.13-4.75 21.33008-7.87988 29.05005-11.12988 20.53004 84.12988 23.10987 136.17994 23.40995 177.68994z" fill="#0c6c71"/><path d="m312 368 16 24s-32 64-32 104h-16.97c.3-41.51 2.87988-93.56006 23.40991-177.68994 7.72 3.25 17.92005 6.37988 29.05005 11.12988l4.51004 22.56006z" fill="#0c6c71"/><path d="m156 496c0-9.647-4.29541-14.60693-9.7334-20.88672-6.6875-7.72119-14.2666-16.47314-14.2666-35.11328 0-25.353 11.43115-36.92236 24.667-50.31787l.48731-.49317a4 4 0 0 1 5.6914 5.62208l-.48779.49365c-12.97999 13.13672-22.35792 22.62793-22.35792 44.69531 0 15.65723 5.98145 22.564 12.314 29.87646 5.74508 6.63379 11.686 13.49366 11.686 26.12354z" fill="#0c6c71"/><path d="m348 496c0-12.62988 5.94092-19.48975 11.686-26.12354 6.33255-7.31246 12.314-14.21923 12.314-29.87646 0-22.06738-9.37793-31.55859-22.35791-44.69531l-.48779-.49365a4 4 0 1 1 5.6914-5.62208l.48731.49317c13.23584 13.39551 24.66699 24.96487 24.66699 50.31787 0 18.64014-7.5791 27.39209-14.2666 35.11328-5.43799 6.27979-9.7334 11.23972-9.7334 20.88672z" fill="#0c6c71"/><path d="m360 384c16 24 8 48-16 40s-56-40-56-120c0-32.98 43.51-38.77 58.78-89.11l26.55005-10.62a16.98776 16.98776 0 0 0 10.65995-15.08006c.01.93006.01 1.87012.01 2.81006 0 72-40 72-40 120 0 32 0 48 16 72z" fill="#795033"/><path d="m240 220h-4a16 16 0 0 1 0-32h4a4 4 0 0 1 0 8h-4a8 8 0 0 0 0 16h4a4 4 0 0 1 0 8z" fill="#e37066"/><g fill="#795033"><path d="m182.81524 161.17384 5.664-5.673a8 8 0 0 1 8.18877-1.938l18.37171 6.11738a4.26906 4.26906 0 0 1 1.67487 1.03661 4.2692 4.2692 0 0 1 -3.02359 7.28317h-28.045a4 4 0 0 1 -2.83076-6.82616z"/><path d="m297.18476 161.17384-5.664-5.673a8 8 0 0 0 -8.18877-1.938l-18.37171 6.11738a4.26906 4.26906 0 0 0 -1.67487 1.03661 4.2692 4.2692 0 0 0 3.02364 7.28317h28.045a4 4 0 0 0 2.83071-6.82616z"/><path d="m200 176a7.99929 7.99929 0 0 0 -7.59473 5.49658c-.56982-.17541-1.12805-.36255-1.65771-.57751a8.64517 8.64517 0 0 1 -3.23792-2.12586 4.00307 4.00307 0 0 1 -.92627-2.79321v-.02234l-.00012-.022a2.58341 2.58341 0 1 0 -5.16662.04434 8.8894 8.8894 0 0 0 .69458 3.36536 8.1715 8.1715 0 0 0 2.02172 2.82177 11.82489 11.82489 0 0 0 5.396 2.64844 19.43162 19.43162 0 0 0 2.58093.43128 7.9959 7.9959 0 1 0 7.89014-9.26685z"/><path d="m280 176a7.99929 7.99929 0 0 0 -7.59473 5.49658c-.56982-.17541-1.128-.36255-1.65771-.57751a8.64517 8.64517 0 0 1 -3.23792-2.12586 4.00307 4.00307 0 0 1 -.92627-2.79321v-.02234l-.00012-.022a2.58341 2.58341 0 1 0 -5.16662.04434 8.8894 8.8894 0 0 0 .69458 3.36536 8.1715 8.1715 0 0 0 2.02172 2.82177 11.82489 11.82489 0 0 0 5.396 2.64844 19.43162 19.43162 0 0 0 2.58093.43128 7.9959 7.9959 0 1 0 7.89014-9.26685z"/></g></g></svg>